<svg width="64" height="64" viewBox="0 0 64 64" fill="none" xmlns="http://www.w3.org/2000/svg">
<path d="M49.9999 30.2671C49.2926 30.2608 48.5874 30.1894 47.8932 30.0538C47.2258 29.9137 46.5738 29.7082 45.9466 29.4405L45.4932 29.3338H45.1732C44.9066 29.3338 44.7732 29.5205 44.7732 29.8938V30.7738C44.7355 30.9406 44.7355 31.1137 44.7732 31.2805C44.9072 31.4998 45.1017 31.6757 45.3332 31.7871C45.9747 32.108 46.6563 32.3412 47.3599 32.4805C48.2335 32.6893 49.1283 32.7967 50.0266 32.8005C50.9302 32.8276 51.8318 32.7013 52.6932 32.4271C53.4049 32.2404 54.0686 31.904 54.6399 31.4405C55.1799 31.0231 55.6253 30.4959 55.9466 29.8938C56.2523 29.2434 56.4073 28.5324 56.3999 27.8138C56.4095 26.9222 56.1287 26.0517 55.5999 25.3338C54.8888 24.5259 53.9647 23.9344 52.9332 23.6271L50.3999 22.8271C49.6921 22.6439 49.0295 22.3172 48.4532 21.8671C48.2843 21.7051 48.15 21.5105 48.0583 21.295C47.9666 21.0796 47.9196 20.8479 47.9199 20.6138C47.9008 20.2974 47.9676 19.9817 48.1131 19.7001C48.2586 19.4184 48.4775 19.1813 48.7466 19.0138C49.4844 18.6558 50.301 18.4907 51.1199 18.5338C52.2867 18.5055 53.4448 18.7425 54.5066 19.2271C54.7236 19.3378 54.9582 19.41 55.1999 19.4405C55.4666 19.4405 55.5999 19.2271 55.5999 18.8538V17.8938C55.6079 17.6865 55.552 17.4817 55.4399 17.3071C55.2975 17.1256 55.1149 16.9796 54.9066 16.8805C54.6688 16.7495 54.4187 16.6424 54.1599 16.5605C53.828 16.4433 53.4897 16.3454 53.1466 16.2671L51.9732 16.0005C51.5383 15.969 51.1016 15.969 50.6666 16.0005C49.9183 15.9876 49.1723 16.0864 48.4532 16.2938C47.78 16.4903 47.1477 16.8065 46.5866 17.2271C46.066 17.607 45.6377 18.0992 45.3332 18.6671C45.0061 19.2727 44.8408 19.9523 44.8532 20.6405C44.8373 21.6032 45.1474 22.543 45.7332 23.3071C46.4654 24.1891 47.4529 24.8226 48.5599 25.1205L51.2266 25.9205C51.8864 26.0746 52.4993 26.3856 53.0132 26.8271C53.3325 27.1651 53.5051 27.6157 53.4932 28.0805C53.499 28.4178 53.4158 28.7507 53.2519 29.0456C53.0881 29.3406 52.8494 29.5871 52.5599 29.7605C51.7684 30.1586 50.8834 30.3338 49.9999 30.2671ZM34.5066 17.3338C34.4655 17.0724 34.3444 16.8302 34.1599 16.6405C33.9604 16.4934 33.7129 16.4267 33.4666 16.4538H31.9999C31.7548 16.4402 31.5117 16.5056 31.3066 16.6405C31.1122 16.8229 30.9893 17.0688 30.9599 17.3338L28.2932 29.0671L25.2532 17.3338C25.2047 17.0692 25.0741 16.8266 24.8799 16.6405C24.8799 16.6405 24.5332 16.4538 24.1866 16.4538H22.4532C22.1599 16.4538 22.0266 16.6138 22.0266 16.9071C22.0524 17.1524 22.1061 17.394 22.1866 17.6271L26.3466 31.3338C26.4006 31.5776 26.5101 31.8058 26.6666 32.0005C26.8762 32.1227 27.1179 32.1785 27.3599 32.1605H28.8799C29.1303 32.1774 29.3803 32.1218 29.5999 32.0005C29.768 31.7928 29.8784 31.5444 29.9199 31.2805L32.5866 19.8671L35.2532 31.3071C35.2754 31.5686 35.3887 31.814 35.5732 32.0005C35.7831 32.1471 36.0386 32.2133 36.2932 32.1871H37.8132C38.0498 32.1988 38.2838 32.1333 38.4799 32.0005C38.6805 31.8193 38.8124 31.5743 38.8532 31.3071L43.1466 17.6005C43.1622 17.4587 43.1622 17.3156 43.1466 17.1738C43.1569 17.0763 43.1569 16.978 43.1466 16.8805C43.1555 16.8189 43.15 16.756 43.1303 16.6969C43.1107 16.6378 43.0776 16.5842 43.0336 16.5401C42.9896 16.4961 42.9359 16.463 42.8768 16.4434C42.8177 16.4237 42.7549 16.4182 42.6932 16.4271H41.0399C40.7952 16.4171 40.5532 16.4823 40.3466 16.6138C40.1824 16.8172 40.0641 17.0537 39.9999 17.3071L37.3332 29.3338L34.5066 17.3338ZM15.3866 23.0138C14.7587 22.9314 14.1265 22.8869 13.4932 22.8805C11.9238 22.798 10.3783 23.2911 9.14658 24.2671C8.62206 24.7163 8.20575 25.2782 7.9287 25.9108C7.65166 26.5434 7.52104 27.2303 7.54658 27.9205C7.51556 28.5489 7.61572 29.177 7.84068 29.7646C8.06564 30.3523 8.41048 30.8867 8.85325 31.3338C9.32913 31.773 9.88809 32.1125 10.4972 32.3323C11.1063 32.5521 11.7532 32.6478 12.3999 32.6138C13.4178 32.6431 14.4286 32.4369 15.3537 32.0113C16.2788 31.5858 17.0931 30.9524 17.7332 30.1605C17.8891 30.5179 18.0672 30.8653 18.2666 31.2005C18.4564 31.4934 18.6705 31.77 18.9066 32.0271C18.9711 32.0924 19.0479 32.1443 19.1326 32.1797C19.2173 32.2151 19.3081 32.2333 19.3999 32.2333C19.4917 32.2333 19.5826 32.2151 19.6673 32.1797C19.7519 32.1443 19.8288 32.0924 19.8932 32.0271L21.0132 31.2805C21.1067 31.2226 21.1863 31.1448 21.2462 31.0526C21.3061 30.9604 21.345 30.8561 21.3599 30.7471C21.403 30.6082 21.403 30.4594 21.3599 30.3205C21.1438 29.9165 20.9567 29.4976 20.7999 29.0671C20.657 28.5463 20.5941 28.0068 20.6132 27.4671V21.8405C20.677 21.0502 20.5798 20.2553 20.3278 19.5036C20.0757 18.7519 19.6739 18.0592 19.1466 17.4671C18.4689 16.8973 17.6812 16.473 16.8325 16.2207C15.9837 15.9684 15.0922 15.8934 14.2132 16.0005C13.3131 16.0001 12.4167 16.1167 11.5466 16.3471C10.7718 16.5273 10.0202 16.7957 9.30658 17.1471C9.11836 17.2303 8.95351 17.3585 8.82658 17.5205C8.76142 17.7197 8.76142 17.9345 8.82658 18.1338V19.0138C8.82658 19.3871 8.82658 19.5471 9.19991 19.5471C9.29657 19.568 9.39659 19.568 9.49325 19.5471L10.1066 19.3338C10.6483 19.0679 11.21 18.845 11.7866 18.6671C12.4145 18.5097 13.0592 18.4292 13.7066 18.4271C14.7374 18.3191 15.7699 18.6155 16.5866 19.2538C17.2216 20.0514 17.5184 21.0663 17.4132 22.0805V23.3871L15.3866 23.0138ZM17.4666 25.4138V26.1338C17.4687 26.6551 17.406 27.1746 17.2799 27.6805C17.1674 28.1052 16.9574 28.4978 16.6666 28.8271C16.222 29.3498 15.64 29.7377 14.9866 29.9471C14.4037 30.1522 13.7911 30.2603 13.1732 30.2671C12.835 30.2923 12.4951 30.2486 12.1743 30.1385C11.8534 30.0285 11.5582 29.8545 11.3066 29.6271C11.073 29.3741 10.8953 29.0748 10.785 28.7486C10.6748 28.4224 10.6344 28.0766 10.6666 27.7338C10.6445 27.3507 10.7127 26.9678 10.8655 26.6158C11.0184 26.2638 11.2516 25.9526 11.5466 25.7071C12.3238 25.1623 13.2675 24.9075 14.2132 24.9871H15.8666C16.4073 25.1 16.9414 25.2425 17.4666 25.4138ZM52.6932 40.0005C46.3183 42.6826 39.4761 44.0783 32.5599 44.1071C23.3027 44.1089 14.2044 41.701 6.15991 37.1205C5.51991 36.7205 5.01325 37.3871 5.57325 37.8938C12.8141 44.4395 22.2391 48.044 31.9999 48.0005C39.6973 48.0194 47.2228 45.7246 53.5999 41.4138C54.5066 40.5871 53.6799 39.4938 52.6932 40.0005Z" fill="#5C5B5B"/>
<path d="M49.0133 37.4935C48.5067 37.8668 48.5867 38.3735 49.1467 38.2935C51.04 38.0535 55.2267 37.5735 55.9733 38.5335C56.72 39.4935 55.1467 43.4135 54.4267 45.1735C54.2133 45.7068 54.6933 45.9202 55.1733 45.5202C56.3876 44.4023 57.3183 43.0116 57.8887 41.4628C58.459 39.9141 58.6526 38.2518 58.4533 36.6135C56.921 36.0101 55.2682 35.7753 53.6284 35.9282C51.9887 36.081 50.4078 36.6172 49.0133 37.4935Z" fill="#5C5B5B"/>
</svg>
