<svg width="64" height="64" viewBox="0 0 64 64" fill="none" xmlns="http://www.w3.org/2000/svg">
<g clip-path="url(#clip0_645_50)">
<path d="M37.5334 32.075C37.5334 30.3026 36.8293 28.6029 35.5761 27.3496C34.3229 26.0964 32.6231 25.3923 30.8507 25.3923C29.0789 25.393 27.3798 26.0974 26.1271 27.3506C24.8744 28.6037 24.1707 30.3031 24.1707 32.075C24.1707 33.8473 24.8748 35.5471 26.1281 36.8003C27.3813 38.0536 29.0811 38.7576 30.8534 38.7576C32.6253 38.7569 34.3244 38.0526 35.577 36.7994C36.8297 35.5462 37.5334 33.8469 37.5334 32.075ZM46.9521 32.075C46.9514 31.2579 46.6263 30.4745 46.0482 29.8969C45.4702 29.3194 44.6865 28.995 43.8694 28.995C43.0518 28.995 42.2678 29.3197 41.6896 29.8979C41.1115 30.476 40.7867 31.2601 40.7867 32.0776C40.7875 32.8947 41.1125 33.6781 41.6906 34.2557C42.2686 34.8332 43.0523 35.1576 43.8694 35.1576C44.6865 35.1576 45.4702 34.8332 46.0482 34.2557C46.6263 33.6781 46.9514 32.8947 46.9521 32.0776V32.075ZM59.7334 46.7736C59.7334 46.3688 59.6535 45.968 59.4984 45.5939C59.3432 45.2199 59.1157 44.8801 58.829 44.5939C58.5422 44.3076 58.2018 44.0805 57.8271 43.9256C57.4525 43.7707 57.0509 43.691 56.6454 43.691C55.8264 43.691 55.041 44.0157 54.4619 44.5939C53.8828 45.172 53.5574 45.9561 53.5574 46.7736C53.5574 47.5912 53.8828 48.3753 54.4619 48.9534C55.041 49.5315 55.8264 49.8563 56.6454 49.8563C57.0509 49.8563 57.4525 49.7766 57.8271 49.6216C58.2018 49.4667 58.5422 49.2397 58.829 48.9534C59.1157 48.6672 59.3432 48.3273 59.4984 47.9533C59.6535 47.5793 59.7334 47.1785 59.7334 46.7736ZM55.3308 37.0376C55.3308 36.2194 55.0068 35.4346 54.4302 34.856C53.8536 34.2774 53.0715 33.9523 52.2561 33.9523C51.8521 33.952 51.452 34.0315 51.0786 34.1864C50.7053 34.3413 50.366 34.5685 50.0802 34.855C49.7945 35.1416 49.5677 35.4818 49.4131 35.8563C49.2584 36.2308 49.1787 36.6322 49.1787 37.0376C49.1787 37.443 49.2584 37.8445 49.4131 38.219C49.5677 38.5935 49.7945 38.9337 50.0802 39.2202C50.366 39.5068 50.7053 39.734 51.0786 39.8889C51.452 40.0438 51.8521 40.1233 52.2561 40.123C53.0715 40.123 53.8536 39.7979 54.4302 39.2193C55.0068 38.6407 55.3308 37.8559 55.3308 37.0376ZM64.0001 37.203C64.0001 36.3868 63.6759 35.6041 63.0988 35.027C62.5216 34.4499 61.7389 34.1256 60.9228 34.1256C60.1066 34.1256 59.3239 34.4499 58.7467 35.027C58.1696 35.6041 57.8454 36.3868 57.8454 37.203C57.8454 38.0191 58.1696 38.8019 58.7467 39.379C59.3239 39.9561 60.1066 40.2803 60.9228 40.2803C61.7389 40.2803 62.5216 39.9561 63.0988 39.379C63.6759 38.8019 64.0001 38.0191 64.0001 37.203ZM55.2561 26.8483C55.2564 26.4443 55.177 26.0442 55.0222 25.6709C54.8674 25.2975 54.6404 24.9582 54.3541 24.6725C54.0679 24.3867 53.7279 24.16 53.3537 24.0053C52.9795 23.8506 52.5785 23.771 52.1734 23.771C51.7684 23.771 51.3673 23.8506 50.9931 24.0053C50.6189 24.16 50.279 24.3867 49.9927 24.6725C49.7064 24.9582 49.4794 25.2975 49.3246 25.6709C49.1699 26.0442 49.0904 26.4443 49.0908 26.8483C49.0908 27.6638 49.4155 28.4458 49.9936 29.0224C50.5718 29.599 51.3558 29.923 52.1734 29.923C52.991 29.923 53.7751 29.599 54.3532 29.0224C54.9313 28.4458 55.2561 27.6638 55.2561 26.8483ZM64.0027 26.9683C64.0027 26.15 63.6766 25.3653 63.096 24.7866C62.5153 24.208 61.7279 23.883 60.9068 23.883C60.5 23.8826 60.0971 23.9622 59.7211 24.1171C59.3452 24.272 59.0036 24.4992 58.7158 24.7857C58.428 25.0722 58.1998 25.4125 58.044 25.787C57.8883 26.1615 57.8081 26.5629 57.8081 26.9683C57.8081 27.3737 57.8883 27.7751 58.044 28.1496C58.1998 28.5241 58.428 28.8644 58.7158 29.1509C59.0036 29.4374 59.3452 29.6646 59.7211 29.8195C60.0971 29.9744 60.5 30.054 60.9068 30.0536C61.3133 30.0533 61.7158 29.9731 62.0913 29.8178C62.4668 29.6624 62.8079 29.4348 63.0952 29.1481C63.3824 28.8613 63.6102 28.521 63.7654 28.1465C63.9207 27.7721 64.0004 27.3708 64.0001 26.9656L64.0027 26.9683ZM59.6641 17.2803C59.6641 16.4599 59.339 15.6731 58.7604 15.093C58.1818 14.5129 57.397 14.187 56.5787 14.187C56.1734 14.1866 55.7719 14.2664 55.3972 14.4217C55.0226 14.577 54.6821 14.8048 54.3954 15.092C54.1086 15.3793 53.8811 15.7204 53.7259 16.0959C53.5706 16.4714 53.4907 16.8739 53.4907 17.2803C53.4907 18.1007 53.8158 18.8875 54.3944 19.4676C54.973 20.0477 55.7578 20.3736 56.5761 20.3736C56.9815 20.374 57.383 20.2942 57.7576 20.1389C58.1322 19.9836 58.4727 19.7558 58.7595 19.4686C59.0462 19.1813 59.2738 18.8402 59.429 18.4647C59.5842 18.0892 59.6641 17.6867 59.6641 17.2803ZM30.9787 1.02163C22.6854 1.02163 14.9014 4.2403 9.05875 10.083C6.17872 12.9588 3.89573 16.3758 2.34109 20.1372C0.786459 23.8986 -0.00913451 27.9303 7.91185e-05 32.0003C7.91185e-05 40.291 3.21875 48.075 9.05875 53.9203C11.9351 56.8004 15.3525 59.0834 19.1144 60.6381C22.8762 62.1927 26.9083 62.9882 30.9787 62.979C37.8534 62.979 44.3601 60.779 49.7921 56.6163L46.0054 51.6776C41.6981 54.9896 36.4121 56.7757 30.9787 56.755C27.7246 56.7625 24.5011 56.1267 21.4934 54.8842C18.4858 53.6417 15.7535 51.817 13.4534 49.515C11.151 47.218 9.32667 44.4874 8.08581 41.4812C6.84495 38.4749 6.21219 35.2526 6.22408 32.0003C6.22408 25.3923 8.79475 19.1683 13.4641 14.4803C15.7601 12.1762 18.4903 10.3504 21.4967 9.10859C24.5031 7.86676 27.726 7.23356 30.9787 7.24563C36.4667 7.24563 41.6641 9.00297 46.0107 12.3256L49.7894 7.38163C44.3963 3.23738 37.7802 1.00043 30.9787 1.02163Z" fill="#5C5B5B"/>
</g>
<defs>
<clipPath id="clip0_645_50">
<rect width="64" height="64" fill="white"/>
</clipPath>
</defs>
</svg>
