<svg width="64" height="64" viewBox="0 0 64 64" fill="none" xmlns="http://www.w3.org/2000/svg">
<path d="M58.1599 27.3342C57.9999 27.2275 56.6666 26.1875 53.7866 26.1875C53.0399 26.1875 52.2932 26.2675 51.5466 26.4009C50.9866 22.6675 47.8666 20.7742 47.7332 20.6942L46.9599 20.2409L46.4799 20.9609C45.8399 21.9209 45.3332 23.0142 45.1199 24.1342C44.5866 26.2675 44.9066 28.2942 45.9999 30.0275C44.6932 30.7742 42.5599 30.9609 42.1066 30.9609H6.98658C6.07992 30.9609 5.33325 31.7075 5.33325 32.6409C5.33325 35.7075 5.81325 38.7742 6.87992 41.6542C8.07992 44.8275 9.89325 47.1742 12.2133 48.6142C14.8266 50.2142 19.1199 51.1209 23.9999 51.1209C26.1066 51.1209 28.2933 50.9342 30.4533 50.5342C33.4399 50.0009 36.3199 48.9609 38.9599 47.4409C41.1463 46.1906 43.1033 44.5763 44.7466 42.6675C47.5466 39.5475 49.1999 36.0009 50.3999 32.9342H50.9066C53.9466 32.9342 55.8399 31.7075 56.8799 30.6675C57.5732 30.0275 58.0799 29.2542 58.4532 28.3475L58.6666 27.7075L58.1599 27.3342ZM10.2666 29.9742H14.9599C15.1733 29.9742 15.3866 29.7875 15.3866 29.5475V25.3342C15.3866 25.1209 15.1999 24.9075 14.9599 24.9075H10.2666C10.0266 24.9075 9.83992 25.0942 9.83992 25.3342V29.5475C9.86659 29.7875 10.0266 29.9742 10.2666 29.9742ZM16.7466 29.9742H21.4399C21.6533 29.9742 21.8666 29.7875 21.8666 29.5475V25.3342C21.8666 25.1209 21.6799 24.9075 21.4399 24.9075H16.7466C16.5066 24.9075 16.3199 25.0942 16.3199 25.3342V29.5475C16.3466 29.7875 16.5066 29.9742 16.7466 29.9742ZM23.3333 29.9742H27.9999C28.2666 29.9742 28.4533 29.7875 28.4533 29.5475V25.3342C28.4533 25.1209 28.2933 24.9075 27.9999 24.9075H23.3333C23.1199 24.9075 22.9333 25.0942 22.9333 25.3342V29.5475C22.9333 29.7875 23.0933 29.9742 23.3333 29.9742ZM29.8399 29.9742H34.5599C34.7733 29.9742 34.9599 29.7875 34.9599 29.5475V25.3342C34.9599 25.1209 34.7999 24.9075 34.5599 24.9075H29.8399C29.6266 24.9075 29.4399 25.0942 29.4399 25.3342V29.5475C29.4399 29.7875 29.6266 29.9742 29.8399 29.9742ZM16.7466 24.0009H21.4399C21.6533 24.0009 21.8666 23.7609 21.8666 23.5209V19.3342C21.8666 19.0942 21.6799 18.9075 21.4399 18.9075H16.7466C16.5066 18.9075 16.3199 19.0675 16.3199 19.3342V23.5209C16.3466 23.7609 16.5066 24.0009 16.7466 24.0009ZM23.3333 24.0009H27.9999C28.2666 24.0009 28.4533 23.7609 28.4533 23.5209V19.3342C28.4533 19.0942 28.2933 18.9075 27.9999 18.9075H23.3333C23.1199 18.9075 22.9333 19.0675 22.9333 19.3342V23.5209C22.9333 23.7609 23.0933 24.0009 23.3333 24.0009ZM29.8399 24.0009H34.5599C34.7733 24.0009 34.9599 23.7609 34.9599 23.5209V19.3342C34.9599 19.0942 34.7733 18.9075 34.5599 18.9075H29.8399C29.6266 18.9075 29.4399 19.0675 29.4399 19.3342V23.5209C29.4399 23.7609 29.6266 24.0009 29.8399 24.0009ZM29.8399 17.9209H34.5599C34.7733 17.9209 34.9599 17.7342 34.9599 17.4942V13.3342C34.9599 13.0675 34.7733 12.8809 34.5599 12.8809H29.8399C29.6266 12.8809 29.4399 13.0409 29.4399 13.3342V17.4942C29.4399 17.7075 29.6266 17.9209 29.8399 17.9209ZM36.3999 29.9742H41.0932C41.3332 29.9742 41.5199 29.7875 41.5199 29.5475V25.3342C41.5199 25.1209 41.3332 24.9075 41.0932 24.9075H36.3999C36.1866 24.9075 35.9999 25.0942 35.9999 25.3342V29.5475C35.9999 29.7875 36.1866 29.9742 36.3999 29.9742Z" fill="#5C5B5B"/>
</svg>
