<svg width="96" height="77" viewBox="0 0 96 77" fill="none" xmlns="http://www.w3.org/2000/svg">
<g clip-path="url(#clip0_645_11)">
<path d="M60.015 29.2206C58.38 29.6406 57.03 29.8656 55.65 30.3606C54.555 30.6456 53.445 30.9456 52.17 31.2756L52.08 31.2906C51.45 31.4706 51.39 31.4856 50.805 30.8106C50.1 30.0156 49.59 29.5056 48.615 29.0256C45.66 27.5856 42.81 28.0056 40.155 29.7306C36.975 31.7856 35.34 34.8306 35.385 38.6106C35.43 42.3606 37.995 45.4356 41.565 45.9456C44.865 46.3656 47.535 45.2556 49.635 42.8706C49.95 42.4806 50.235 42.0756 50.55 41.6256C50.67 41.4756 50.775 41.3106 50.895 41.1306H41.88C40.905 41.1306 40.665 40.5306 40.995 39.7356C41.595 38.2806 42.72 35.8506 43.38 34.6356C43.515 34.3656 43.845 33.7656 44.415 33.7656H59.58C60.255 31.7556 61.35 29.7306 62.82 27.8106C66.225 23.3256 70.215 20.9856 75.9 20.0106C80.67 19.1706 85.155 19.6356 89.235 22.3956C92.925 24.9156 95.205 28.3356 95.82 32.8206C96.615 39.1356 94.785 44.2656 90.315 48.6606C87.36 51.7956 83.58 53.7606 79.23 54.6456C78.39 54.7956 77.565 54.8706 76.755 54.9456C76.32 54.9756 75.9 55.0206 75.48 55.0656C71.235 54.9756 67.35 53.7606 64.08 50.9556C61.785 48.9606 60.195 46.5156 59.415 43.6806C58.86 44.7756 58.215 45.8406 57.315 46.8456C54.075 51.2856 49.68 54.0456 44.13 54.7806C39.54 55.3956 35.295 54.5106 31.545 51.7056C28.095 49.0806 26.13 45.6306 25.62 41.3256C25.005 36.2256 26.505 31.5156 29.58 27.6306C32.91 23.2806 37.305 20.5206 42.675 19.5456C47.07 18.6156 51.27 19.2606 55.065 21.8406C57.54 23.4756 59.31 25.7106 60.48 28.4256C60.765 28.8456 60.57 29.0856 60.015 29.2206ZM7.24501 30.0606C7.05751 30.0606 7.01101 29.9706 7.10401 29.8206L8.08651 28.5606C8.17951 28.4256 8.41351 28.3356 8.60101 28.3356H25.29C25.47 28.3356 25.515 28.4706 25.425 28.6056L24.63 29.8206C24.54 29.9706 24.3 30.1056 24.165 30.1056L7.24501 30.0606ZM0.186911 34.3656C1.11222e-05 34.3656 -0.0467889 34.2606 0.0468111 34.1256L1.02826 32.8656C1.12186 32.7306 1.35556 32.6256 1.54201 32.6256H22.86C23.04 32.6256 23.13 32.7756 23.085 32.9106L22.71 34.0356C22.665 34.2156 22.485 34.3206 22.29 34.3206L0.186911 34.3656ZM11.358 38.3856C11.265 38.5206 11.3115 38.6556 11.4975 38.6556L21.69 38.7006C21.825 38.7006 22.02 38.5656 22.02 38.3856L22.11 37.2606C22.11 37.0656 22.02 36.9306 21.825 36.9306H12.48C12.2925 36.9306 12.1065 37.0656 12.012 37.2156L11.358 38.3856ZM86.58 35.6856C86.55 35.2956 86.535 34.9656 86.475 34.6356C85.635 30.0156 81.375 27.3906 76.935 28.4256C72.585 29.4006 69.78 32.1606 68.76 36.5556C67.92 40.2006 69.69 43.8906 73.05 45.3906C75.63 46.5156 78.195 46.3806 80.67 45.1056C84.36 43.0656 86.37 40.2006 86.61 36.1806C86.595 36.0006 86.595 35.8356 86.58 35.6856Z" fill="#5C5B5B"/>
</g>
<defs>
<clipPath id="clip0_645_11">
<rect width="96" height="76.8" fill="white"/>
</clipPath>
</defs>
</svg>
