<svg width="64" height="64" viewBox="0 0 64 64" fill="none" xmlns="http://www.w3.org/2000/svg">
<path d="M61.3866 28.24C61.127 25.4242 60.3476 22.681 59.0879 20.1493C57.8815 17.7196 56.268 15.5144 54.3173 13.6293C55.2159 10.0507 53.2159 6.94933 53.2159 6.94933C49.7706 6.736 47.5813 8.016 46.7733 8.60267C46.6346 8.54933 46.5013 8.48533 46.3626 8.432C45.7759 8.19467 45.1733 7.97333 44.5573 7.77333C43.9413 7.57867 43.3039 7.4 42.6613 7.248C41.8903 7.06988 41.1118 6.92662 40.3279 6.81867C38.8186 2.008 34.5066 0 34.5066 0C29.6959 3.05333 28.7813 7.31733 28.7813 7.31733L28.7333 7.56533C28.4719 7.64267 28.1999 7.71733 27.9386 7.8C27.5706 7.912 27.2053 8.05067 26.8373 8.18133C26.4693 8.328 26.1039 8.46667 25.7439 8.624C24.2855 9.25585 22.8945 10.0331 21.5919 10.944L21.4239 10.8667C14.7653 8.32 8.84793 11.3867 8.84793 11.3867C8.30659 18.4747 11.5039 22.9333 12.1413 23.7493C11.3298 26.0205 10.7866 28.3787 10.5226 30.776C4.36259 33.8053 2.54126 40.0373 2.54126 40.0373C7.67726 45.9413 13.6639 46.3067 13.6639 46.3067C13.6719 46.3013 13.6799 46.3013 13.6799 46.2933C14.4399 47.6507 15.3199 48.944 16.3093 50.1493C16.7253 50.656 17.1626 51.1387 17.6106 51.6107C15.7333 56.968 17.8746 61.424 17.8746 61.424C23.5919 61.6373 27.3493 58.9253 28.1386 58.296C30.8585 59.2019 33.7092 59.6532 36.5759 59.632H36.7893L36.9359 59.624L37.2213 59.6187L37.4959 59.6053L37.5039 59.6107C40.1973 63.4507 44.9386 64 44.9386 64C48.3093 60.448 48.5039 56.9253 48.5039 56.16V56.0053C48.5039 55.952 48.4959 55.9013 48.4959 55.8453C49.2026 55.3467 49.8826 54.8133 50.5173 54.2453C51.982 52.9193 53.2523 51.3931 54.2906 49.712C58.1039 49.9333 60.7893 47.352 60.7893 47.352C60.1599 43.3787 57.8959 41.4427 57.4186 41.0747L57.3706 41.04L57.3279 41.0053C57.2989 40.9899 57.2712 40.9721 57.2453 40.952C57.2666 40.7067 57.2879 40.472 57.2986 40.232C57.3279 39.8 57.3413 39.3707 57.3413 38.952V38.2773L57.3279 38.016L57.3066 37.656C57.3017 37.5402 57.2928 37.4245 57.2799 37.3093C57.2719 37.1973 57.2586 37.088 57.2453 36.976L57.2026 36.6453L57.1546 36.32C56.5726 32.471 54.6542 28.9496 51.7359 26.3733C49.3269 24.2437 46.3334 22.8873 43.1439 22.48C42.3921 22.3862 41.6348 22.3434 40.8773 22.352L40.5919 22.3573H40.4239L40.3066 22.3653L40.0293 22.3867C38.319 22.503 36.6499 22.9632 35.1217 23.7399C33.5936 24.5166 32.2379 25.5936 31.1359 26.9067C30.2506 27.9733 29.5573 29.1467 29.0879 30.3653C28.486 31.9076 28.203 33.5559 28.2559 35.2107L28.2639 35.4533C28.2773 35.6 28.2826 35.7467 28.2986 35.8907C28.4629 37.6484 29.1068 39.3272 30.1599 40.744C31.3715 42.3805 33.0809 43.58 35.0319 44.1627C35.9119 44.424 36.7919 44.536 37.6213 44.528C37.7253 44.528 37.8293 44.528 37.9253 44.5227L38.0933 44.5147C38.1466 44.5147 38.2026 44.5067 38.2586 44.5067C38.3493 44.5013 38.4319 44.488 38.5226 44.48C38.5413 44.48 38.5706 44.472 38.5973 44.472L38.6799 44.4587L38.8399 44.4373C38.9403 44.4244 39.04 44.4066 39.1386 44.384C39.2346 44.3627 39.3306 44.3493 39.4293 44.32C40.3051 44.1108 41.1326 43.7351 41.8666 43.2133C41.9413 43.16 42.0159 43.104 42.0933 43.04C42.1617 42.9858 42.2187 42.9185 42.261 42.8421C42.3033 42.7658 42.33 42.6818 42.3397 42.595C42.3494 42.5082 42.3417 42.4204 42.3173 42.3366C42.2929 42.2528 42.2521 42.1746 42.1973 42.1067C42.1009 41.987 41.9653 41.9053 41.8145 41.876C41.6637 41.8467 41.5074 41.8718 41.3733 41.9467L41.1653 42.0587C40.9253 42.176 40.6746 42.28 40.4106 42.368C39.9978 42.4945 39.5735 42.5803 39.1439 42.624C39.0693 42.632 38.9999 42.64 38.9226 42.64L38.7013 42.6453C38.6319 42.6453 38.5573 42.6453 38.4879 42.64L38.2159 42.624H38.1839L38.1199 42.64C38.0773 42.632 38.0373 42.632 38.0026 42.624C37.9199 42.6187 37.8426 42.6053 37.7599 42.5973C37.0921 42.5033 36.4416 42.3119 35.8293 42.0293C35.1789 41.7355 34.5787 41.3413 34.0506 40.8613C32.9061 39.8344 32.1484 38.4461 31.9039 36.928C31.84 36.5367 31.8141 36.1402 31.8266 35.744L31.8426 35.4187V35.3573L31.8479 35.2747C31.8559 35.2187 31.8559 35.168 31.8613 35.1147C31.9829 33.8961 32.3684 32.7186 32.991 31.664C33.6136 30.6095 34.4584 29.7031 35.4666 29.008C36.2301 28.4899 37.0745 28.1024 37.9653 27.8613C38.64 27.6799 39.3359 27.5894 40.0346 27.592H40.1946L40.3813 27.5973L40.5013 27.6053H40.5706L40.7573 27.6187C42.287 27.7388 43.7735 28.1843 45.1173 28.9253C46.9518 29.943 48.4397 31.4866 49.3893 33.3573C49.9859 34.5327 50.3456 35.8139 50.4479 37.128L50.4613 37.3307L50.4693 37.5307C50.4746 37.6 50.4746 37.664 50.4746 37.7307C50.4746 37.7947 50.4826 37.8693 50.4746 37.9173V38.0907L50.4693 38.2853L50.4479 38.7493C50.4064 39.3206 50.3352 39.8894 50.2346 40.4533C50.0759 41.298 49.8375 42.1257 49.5226 42.9253C49.0925 43.9937 48.5337 45.0056 47.8586 45.9387C45.7931 48.7875 42.6949 50.7151 39.2266 51.3093C38.6543 51.407 38.0761 51.4658 37.4959 51.4853L37.3919 51.4933H36.6266C35.0768 51.4601 33.5382 51.2225 32.0506 50.7867C28.4759 49.7476 25.3093 47.6297 22.9839 44.7227C22.2185 43.7706 21.5519 42.7431 20.9946 41.656C19.8921 39.5033 19.2441 37.147 19.0906 34.7333L19.0773 34.512L19.0719 34.4587V34.3093L19.0639 34.1147V33.8587L19.0559 33.5813V33.3947L19.0639 32.96C19.0853 32.3733 19.1333 31.76 19.2079 31.152C19.3606 29.9297 19.6102 28.7214 19.9546 27.5387C20.2959 26.3547 20.7173 25.2133 21.2159 24.1333C22.1577 22.0454 23.4736 20.1475 25.0986 18.5333C25.8734 17.7694 26.725 17.0876 27.6399 16.4987C28.0906 16.2027 28.5546 15.9307 29.0373 15.6827C29.2746 15.5493 29.5226 15.44 29.7653 15.3227C29.8906 15.2693 30.0133 15.2107 30.1333 15.1573C30.7549 14.8864 31.3904 14.6488 32.0373 14.4453L32.4239 14.3253C32.5546 14.2853 32.6853 14.256 32.8186 14.216C33.0799 14.1387 33.3439 14.0773 33.6079 14.0133C33.7386 13.9787 33.8746 13.96 34.0079 13.9253L34.4079 13.84L34.8106 13.7653L35.0133 13.7307L35.2133 13.704L35.6213 13.64C35.7733 13.6133 35.9253 13.6053 36.0773 13.5787L36.5279 13.5227C36.6239 13.5147 36.7226 13.5013 36.8106 13.496L37.0053 13.4747L37.1013 13.4667L37.2133 13.4613C37.3653 13.4533 37.5173 13.44 37.6693 13.4347L37.8986 13.4187H37.9599L38.0586 13.4107L38.4453 13.392C39.971 13.3398 41.498 13.4516 42.9999 13.7253C44.8946 14.0777 46.7321 14.6878 48.4613 15.5387C50.0596 16.3236 51.5568 17.2996 52.9199 18.4453L53.1599 18.6507L53.3973 18.8587C53.5573 18.9973 53.7013 19.144 53.8533 19.2827C54.0053 19.4213 54.1519 19.5653 54.2959 19.7093C54.4346 19.856 54.5813 19.9947 54.7199 20.1467C56.2145 21.7198 57.4803 23.4954 58.4799 25.4213C58.5119 25.4907 58.5546 25.56 58.5866 25.6293L58.6933 25.8373L58.8933 26.2533C58.9546 26.3893 59.0266 26.52 59.0799 26.6613L59.2533 27.0613C59.7479 28.2185 60.1492 29.4135 60.4533 30.6347C60.4832 30.7511 60.5535 30.8531 60.6517 30.9225C60.7499 30.9919 60.8695 31.0241 60.9893 31.0133C61.1133 31.004 61.2293 30.9483 61.3143 30.8575C61.3992 30.7666 61.4469 30.6471 61.4479 30.5227C61.4746 29.8667 61.4533 29.104 61.3839 28.24H61.3866Z" fill="#5C5B5B"/>
</svg>
