<svg width="64" height="64" viewBox="0 0 64 64" fill="none" xmlns="http://www.w3.org/2000/svg">
<g clip-path="url(#clip0_647_17)">
<path d="M37.796 36.6001C37.886 36.5974 37.9759 36.6055 38.064 36.6241L38.076 36.6081L45.012 37.7801C43.9882 40.6579 42.0346 43.1125 39.46 44.7561L36.768 38.2521L36.776 38.2441C36.7009 38.0699 36.6691 37.88 36.6832 37.6908C36.6974 37.5016 36.7571 37.3186 36.8573 37.1575C36.9575 36.9964 37.0953 36.8619 37.2587 36.7655C37.4222 36.6692 37.6065 36.6138 37.796 36.6041V36.6001ZM26.868 36.8921C27.0666 37.0533 27.2072 37.2748 27.2686 37.5231C27.33 37.7714 27.3087 38.033 27.208 38.2681L27.228 38.2921L24.564 44.7321C22.0056 43.0942 20.0596 40.6574 19.028 37.8001L25.908 36.6321L25.916 36.6481C26.0826 36.6155 26.2543 36.6201 26.4189 36.6616C26.5834 36.7031 26.7368 36.7844 26.868 36.8921ZM32.6 39.6161C32.7823 39.7249 32.9316 39.8811 33.032 40.0681H33.056L36.448 46.1961C33.5708 47.1722 30.4515 47.1693 27.576 46.1881L30.956 40.0721H30.964C31.0386 39.9319 31.1408 39.8082 31.2647 39.7087C31.3885 39.6092 31.5312 39.5359 31.6842 39.4932C31.8372 39.4506 31.9973 39.4395 32.1547 39.4606C32.3122 39.4817 32.4636 39.5346 32.6 39.6161ZM38.532 30.5201L43.732 25.8681C45.332 28.4561 46.032 31.5001 45.74 34.5241L39.004 32.5841L38.996 32.5561C38.792 32.4991 38.6072 32.3881 38.4611 32.2348C38.3149 32.0815 38.2129 31.8916 38.1658 31.6851C38.1187 31.4786 38.1282 31.2632 38.1934 31.0616C38.2585 30.8601 38.3769 30.6799 38.536 30.5401L38.532 30.5201ZM34.264 26.9841C34.1473 26.8064 34.081 26.6005 34.072 26.3881H34.064L33.668 19.4121C36.6773 19.7847 39.4809 21.1352 41.648 23.2561L35.96 27.2961L35.94 27.2841C35.8117 27.3776 35.6658 27.4441 35.5111 27.4796C35.3565 27.5152 35.1962 27.5191 35.04 27.491C34.8837 27.463 34.7348 27.4036 34.6021 27.3165C34.4695 27.2294 34.3558 27.1163 34.268 26.9841H34.264ZM28.628 27.5321C28.4171 27.5127 28.2153 27.4367 28.044 27.3121L28.032 27.3161L22.3 23.2561C24.4755 21.1174 27.3018 19.7648 30.332 19.4121L29.932 26.3961L29.904 26.4121C29.8976 26.5708 29.859 26.7264 29.7906 26.8697C29.7222 27.013 29.6254 27.1409 29.5061 27.2456C29.3868 27.3504 29.2474 27.4298 29.0965 27.479C28.9455 27.5283 28.7861 27.5463 28.628 27.5321ZM25.528 32.2721C25.3803 32.4257 25.1937 32.5363 24.988 32.5921L24.984 32.6121L18.276 34.5481C17.943 31.5187 18.6284 28.4647 20.224 25.8681L25.456 30.5481L25.448 30.5721C25.5687 30.6761 25.6669 30.8035 25.7366 30.9467C25.8064 31.0899 25.8462 31.2458 25.8537 31.4049C25.8612 31.564 25.8362 31.7229 25.7802 31.872C25.7242 32.0211 25.6384 32.1573 25.528 32.2721ZM32 35.5721L30.068 34.6441L29.588 32.5681L30.924 30.9041H33.068L34.4 32.5721L33.92 34.6481L32 35.5721Z" fill="#5C5B5B"/>
<path fill-rule="evenodd" clip-rule="evenodd" d="M58.3999 14.857L63.8999 38.737C64.078 39.5291 64.0224 40.3558 63.7399 41.117C63.5856 41.5481 63.3613 41.9508 63.0759 42.309L47.6759 61.465C47.2743 61.9595 46.7655 62.3562 46.1879 62.625C46.0839 62.677 45.9719 62.721 45.8599 62.765C45.3781 62.9484 44.8675 63.0445 44.3519 63.049L19.6519 63.057C19.0694 63.0497 18.4941 62.9264 17.9598 62.6942C17.4255 62.4621 16.9428 62.1258 16.5399 61.705L16.5119 61.677C16.4479 61.609 16.3839 61.541 16.3239 61.465L0.923918 42.321C0.639867 41.9584 0.41446 41.5534 0.255918 41.121C-0.0196627 40.361 -0.0737613 39.5385 0.0999176 38.749L5.59192 14.865C5.73947 14.2471 6.02231 13.6698 6.42005 13.1745C6.81779 12.6792 7.3205 12.2784 7.89192 12.001L30.1479 1.36496C30.7245 1.08997 31.3552 0.947266 31.9939 0.947266C32.6327 0.947266 33.2634 1.08997 33.8399 1.36496L56.0959 11.993C56.6679 12.2702 57.1713 12.6708 57.5697 13.1661C57.9681 13.6614 58.2517 14.2389 58.3999 14.857ZM41.0359 48.565C40.9498 48.3913 40.8749 48.2123 40.8119 48.029C44.4702 45.86 47.2035 42.422 48.4919 38.369L49.0599 38.469C49.2618 38.2819 49.5288 38.1814 49.8039 38.189C50.6039 38.345 51.3799 38.573 52.1279 38.877C52.5199 39.053 52.9159 39.205 53.3239 39.337L53.5359 39.385L53.6679 39.409L53.6959 39.417L53.7119 39.421C53.8881 39.477 54.074 39.4958 54.2578 39.4763C54.4416 39.4568 54.6194 39.3994 54.7799 39.3076C54.9404 39.2159 55.0801 39.0918 55.1901 38.9433C55.3002 38.7948 55.3783 38.6251 55.4194 38.4448C55.4605 38.2646 55.4637 38.0778 55.4289 37.8963C55.3941 37.7147 55.322 37.5423 55.2172 37.3901C55.1123 37.2378 54.977 37.109 54.8198 37.0117C54.6626 36.9144 54.487 36.8509 54.3039 36.825C54.2585 36.8147 54.2132 36.804 54.1679 36.793L53.9159 36.733C53.4928 36.6754 53.0668 36.642 52.6399 36.633C51.8331 36.5802 51.0333 36.4489 50.2519 36.241C50.0098 36.1049 49.8103 35.904 49.6759 35.661L49.1399 35.505C49.7143 31.3038 48.7265 27.038 46.3639 23.517C46.5202 23.3745 46.6776 23.2332 46.8359 23.093C46.8186 22.819 46.909 22.5492 47.0879 22.341C47.6999 21.813 48.3679 21.345 49.0679 20.949C49.4479 20.753 49.8199 20.537 50.1759 20.301C50.2758 20.2242 50.3732 20.1441 50.4679 20.061C50.6228 19.9587 50.7546 19.8253 50.855 19.6693C50.9555 19.5133 51.0223 19.338 51.0513 19.1547C51.0803 18.9715 51.0708 18.7841 51.0233 18.6047C50.9759 18.4253 50.8917 18.2578 50.7759 18.1128C50.6602 17.9677 50.5155 17.8484 50.3511 17.7624C50.1866 17.6763 50.0061 17.6255 49.821 17.6131C49.6358 17.6007 49.4501 17.627 49.2757 17.6903C49.1013 17.7537 48.942 17.8527 48.8079 17.981L48.7279 18.045C48.6559 18.101 48.5719 18.165 48.5159 18.217C48.2047 18.5102 47.9109 18.8214 47.6359 19.149C47.0879 19.749 46.4879 20.293 45.8359 20.773C45.5813 20.8764 45.3029 20.9069 45.0319 20.861L44.5239 21.221C41.6068 18.1609 37.6783 16.2634 33.4679 15.881C33.456 15.6837 33.4453 15.4864 33.4359 15.289C33.2076 15.1323 33.0497 14.8925 32.9959 14.621C32.9695 13.8125 33.0217 13.0033 33.1519 12.205C33.2359 11.785 33.2959 11.365 33.3319 10.937V10.561C33.3431 10.3773 33.3163 10.1933 33.253 10.0206C33.1898 9.84777 33.0916 9.68991 32.9645 9.55686C32.8374 9.42381 32.6843 9.31844 32.5146 9.24736C32.3449 9.17628 32.1623 9.14101 31.9783 9.14378C31.7944 9.14654 31.613 9.18727 31.4455 9.26341C31.278 9.33956 31.128 9.44948 31.005 9.58628C30.882 9.72309 30.7885 9.88383 30.7305 10.0584C30.6725 10.233 30.6512 10.4177 30.6679 10.601V10.941C30.7039 11.369 30.7639 11.789 30.8479 12.209C30.9759 13.009 31.0239 13.817 30.9959 14.625C30.9203 14.8907 30.7704 15.1294 30.5639 15.313L30.5319 15.877C26.293 16.2174 22.3323 18.1223 19.4199 21.221C19.2585 21.1083 19.0985 20.9936 18.9399 20.877C18.6761 20.9563 18.3918 20.929 18.1479 20.801C17.4978 20.3194 16.8963 19.7755 16.3519 19.177C16.0779 18.8511 15.7854 18.5413 15.4759 18.249C15.3986 18.1833 15.3199 18.1193 15.2399 18.057L15.1799 18.013C14.9161 17.7995 14.5909 17.6761 14.2519 17.661C14.0505 17.6506 13.8496 17.6879 13.6654 17.77C13.4812 17.852 13.3189 17.9764 13.1919 18.133C12.9773 18.437 12.8913 18.8134 12.9527 19.1804C13.0142 19.5475 13.218 19.8754 13.5199 20.093L13.5399 20.109L13.6119 20.169L13.8119 20.329C14.1719 20.569 14.5399 20.785 14.9199 20.977C15.6239 21.377 16.2879 21.841 16.8999 22.369C17.0592 22.5949 17.1521 22.861 17.1679 23.137L17.5959 23.517C15.2402 27.0506 14.2716 31.3293 14.8759 35.533L14.3159 35.697C14.171 35.9306 13.9755 36.1288 13.7439 36.277C12.9639 36.4847 12.1654 36.616 11.3599 36.669C10.9317 36.6776 10.5043 36.711 10.0799 36.769C9.99682 36.7871 9.91413 36.8071 9.83192 36.829L9.72392 36.853H9.71192L9.69192 36.861C9.50888 36.8869 9.33321 36.9504 9.17601 37.0477C9.01881 37.145 8.88351 37.2738 8.77867 37.4261C8.67383 37.5783 8.60172 37.7507 8.56691 37.9323C8.53211 38.1138 8.53536 38.3006 8.57646 38.4808C8.61756 38.6611 8.69562 38.8308 8.80569 38.9793C8.91577 39.1278 9.05547 39.2519 9.21595 39.3436C9.37644 39.4354 9.55422 39.4928 9.73805 39.5123C9.92188 39.5318 10.1078 39.513 10.2839 39.457H10.3039L10.3239 39.449H10.3319C10.3639 39.437 10.3959 39.433 10.4319 39.425L10.6759 39.369C11.0833 39.2394 11.4827 39.0857 11.8719 38.909C12.6214 38.6078 13.3984 38.38 14.1919 38.229C14.4679 38.2448 14.734 38.3377 14.9599 38.497L15.5399 38.397C16.8429 42.4247 19.5746 45.8366 23.2199 47.989L22.9799 48.569C23.0929 48.8024 23.1347 49.064 23.0999 49.321C22.7639 50.081 22.3599 50.809 21.8919 51.489C21.6329 51.8295 21.3939 52.1848 21.1759 52.553L21.0559 52.805L21.0079 52.913C20.9131 53.0728 20.8528 53.2507 20.8306 53.4352C20.8085 53.6197 20.8251 53.8068 20.8794 53.9846C20.9336 54.1623 21.0244 54.3267 21.1458 54.4674C21.2673 54.6081 21.4168 54.7219 21.5847 54.8015C21.7526 54.8811 21.9353 54.9248 22.121 54.9298C22.3068 54.9349 22.4916 54.9011 22.6635 54.8306C22.8355 54.7602 22.9909 54.6546 23.1198 54.5207C23.2486 54.3868 23.3481 54.2275 23.4119 54.053C23.4662 53.9388 23.5222 53.8214 23.5799 53.709C23.7319 53.309 23.8599 52.905 23.9639 52.489C24.1919 51.649 24.5399 50.841 24.9959 50.097C25.1541 49.9483 25.3534 49.8507 25.5679 49.817L25.8719 49.269C29.8261 50.7896 34.2018 50.801 38.1639 49.301C38.2585 49.471 38.3518 49.6416 38.4439 49.813C38.7162 49.8548 38.9608 50.003 39.1239 50.225C39.5029 50.9398 39.8111 51.6901 40.0439 52.465C40.1479 52.881 40.2759 53.289 40.4279 53.689L40.5479 53.941L40.5919 54.029C40.6692 54.2504 40.8036 54.4474 40.9815 54.6002C41.1594 54.753 41.3745 54.8562 41.6051 54.8992C41.8356 54.9422 42.0734 54.9236 42.2945 54.8453C42.5155 54.7669 42.7119 54.6316 42.8639 54.453C43.0473 54.24 43.1591 53.9748 43.1835 53.6949C43.2079 53.4149 43.1437 53.1344 42.9999 52.893L42.9519 52.789L42.8279 52.533C42.61 52.1648 42.3709 51.8095 42.1119 51.469C41.6506 50.8051 41.2554 50.0978 40.9319 49.357C40.8609 49.0909 40.8983 48.8075 41.0359 48.569V48.565Z" fill="#5C5B5B"/>
</g>
<defs>
<clipPath id="clip0_647_17">
<rect width="64" height="64" fill="white"/>
</clipPath>
</defs>
</svg>
