<svg width="64" height="64" viewBox="0 0 64 64" fill="none" xmlns="http://www.w3.org/2000/svg">
<path d="M46.2228 25.48C42.8522 10.6 34.8842 5.70933 34.0282 3.84C33.2815 2.78933 32.6148 1.296 32.0682 0C31.9722 1.32 31.9215 1.82667 30.6735 3.15733C28.7455 4.66667 18.8388 12.976 18.0335 29.8773C17.2815 45.6427 29.4202 55.0373 31.0682 56.2347L31.2548 56.368C31.598 58.906 31.8914 61.4505 32.1348 64H33.4175C33.7213 61.2484 34.1753 58.5154 34.7775 55.8133C35.8895 55.024 36.3882 54.5787 37.0442 53.9653C40.1507 51.0914 42.6196 47.5976 44.2912 43.7097C45.9627 39.8218 46.7998 35.6264 46.7482 31.3947C46.7748 29.224 46.4735 26.9627 46.2228 25.48ZM31.9935 47.3333C31.9935 47.3333 31.9935 25.224 32.7268 25.2267C33.2948 25.2267 34.0335 53.7467 34.0335 53.7467C33.0175 53.6267 31.9935 49.0533 31.9935 47.3333Z" fill="#5C5B5B"/>
</svg>
