<svg width="64" height="64" viewBox="0 0 64 64" fill="none" xmlns="http://www.w3.org/2000/svg">
<path d="M32 0L4.28003 16V48L32 64L59.72 48V16L32 0ZM48 44.24C48 46.126 46.28 47.678 43.928 47.678C42.24 47.678 40.322 47 39.126 45.52L23.126 26.48V44.24C23.126 46.158 21.606 47.678 19.72 47.678H19.52C18.6103 47.6712 17.7398 47.3068 17.0965 46.6635C16.4532 46.0202 16.0888 45.1497 16.082 44.24V19.76C16.082 17.874 17.76 16.322 20.082 16.322C21.802 16.322 23.76 17 24.956 18.48L40.874 37.52V19.76C40.874 17.834 42.48 16.322 44.322 16.322H44.52C45.4301 16.3278 46.3012 16.6918 46.9447 17.3353C47.5882 17.9788 47.9523 18.85 47.958 19.76V44.24H48Z" fill="#5C5B5B"/>
</svg>
