<svg width="64" height="64" viewBox="0 0 64 64" fill="none" xmlns="http://www.w3.org/2000/svg">
<path d="M28.64 34.3736V34.0802C28.8 33.6802 28.96 33.3069 29.1467 32.9336C30.6226 29.8143 30.8701 26.2537 29.84 22.9602C29.7862 22.4899 29.5881 22.0477 29.273 21.6944C28.9579 21.3411 28.5412 21.0939 28.08 20.9869C26.0961 20.8488 24.1284 21.4259 22.5333 22.6136V23.0936C22.7085 25.2354 22.6549 27.3898 22.3733 29.5202C22.222 30.4765 22.2924 31.4547 22.5791 32.3794C22.8657 33.3041 23.361 34.1506 24.0267 34.8536C24.517 35.3752 25.1073 35.7928 25.7625 36.0814C26.4176 36.37 27.1242 36.5238 27.84 36.5336C28.0678 35.7998 28.3349 35.0787 28.64 34.3736ZM26.6667 22.8802C26.5168 22.7105 26.4318 22.4932 26.4267 22.2669C26.4429 22.2001 26.4725 22.1372 26.5137 22.0822C26.555 22.0272 26.607 21.9812 26.6667 21.9469C27.0602 21.7426 27.5111 21.6769 27.9467 21.7602C28.6133 21.7602 29.28 22.1869 29.2267 22.6669C29.1271 22.931 28.9479 23.1577 28.7137 23.3154C28.4796 23.473 28.2022 23.554 27.92 23.5469H27.76C27.3218 23.4777 26.9288 23.2381 26.6667 22.8802Z" fill="#5C5B5B"/>
<path d="M21.0133 29.3327C21.2538 27.2975 21.3074 25.2445 21.1733 23.1994V22.4527C21.0682 18.0505 22.5228 13.7529 25.2799 10.3194C22.6133 9.46608 16.2133 7.65275 12.2933 10.5861C9.89327 12.2927 8.77327 15.4927 9.01327 20.0527C9.54449 24.0366 10.4371 27.9639 11.6799 31.7861C13.4933 37.7061 15.5466 41.4394 17.3066 42.0528C17.5733 42.0528 18.3999 42.3994 19.5999 40.9594C21.3066 38.9327 22.8799 37.1994 23.5999 36.4261L23.0933 35.9194C22.258 35.059 21.6351 34.0156 21.274 32.8722C20.9129 31.7287 20.8236 30.5168 21.0133 29.3327ZM30.3466 38.3994C29.9199 38.2394 29.7066 38.1327 29.2266 38.6927C28.9412 38.9799 28.6824 39.2923 28.4533 39.6261C27.5199 40.7727 27.1199 41.1727 24.4266 41.7327C24.0618 41.7933 23.7044 41.8916 23.3599 42.0261C23.6564 42.2338 23.9922 42.379 24.3466 42.4527C25.5399 42.8564 26.8312 42.867 28.031 42.483C29.2308 42.0991 30.276 41.3408 31.0133 40.3194C31.0821 40.1735 31.1179 40.0141 31.1179 39.8527C31.1179 39.6914 31.0821 39.532 31.0133 39.3861C30.9289 38.9826 30.6895 38.6283 30.3466 38.3994ZM47.1199 22.8794C47.2437 22.1835 47.315 21.4793 47.3333 20.7727C45.5733 20.5594 43.5466 20.5861 42.7466 21.7327C41.1999 23.9461 44.2399 29.4127 45.4133 31.7327C45.671 32.1444 45.9026 32.572 46.1066 33.0127C46.2131 33.3005 46.347 33.5774 46.5066 33.8394C47.201 32.0285 47.3494 30.0537 46.9333 28.1594C46.8056 27.2316 46.7433 26.296 46.7466 25.3594C46.806 24.5243 46.9308 23.695 47.1199 22.8794ZM45.6266 22.4527C45.3957 22.6882 45.0976 22.8465 44.7733 22.9061H44.6133C44.3597 22.9071 44.1118 22.8311 43.9024 22.6883C43.6929 22.5455 43.5316 22.3425 43.4399 22.1061C43.4399 21.7327 43.9733 21.4661 44.6133 21.3594C45.2533 21.2527 45.8933 21.3594 45.9466 21.7594C45.9344 22.0234 45.8196 22.2722 45.6266 22.4527Z" fill="#5C5B5B"/>
<path d="M45.3334 13.0128C47.0901 14.9664 48.3441 17.3187 48.9867 19.8662C49.0008 19.9991 49.0008 20.1332 48.9867 20.2662C48.9955 21.2138 48.9151 22.1602 48.7467 23.0928C48.6202 23.8517 48.5401 24.6176 48.5067 25.3862C48.5013 26.2785 48.5637 27.17 48.6934 28.0528C49.232 30.4997 48.8921 33.0581 47.7334 35.2795L47.92 35.4928C53.84 26.1862 55.92 15.3862 54.0267 13.0128C52.8139 11.4881 51.267 10.2624 49.5055 9.43012C47.7439 8.59788 45.8147 8.18142 43.8667 8.21284C42.4064 8.19246 40.9485 8.33558 39.52 8.63951C41.7598 9.64528 43.7462 11.1396 45.3334 13.0128Z" fill="#5C5B5B"/>
<path d="M57.7334 37.3333C57.5467 36.7999 56.7468 35.0666 53.8134 35.6799C52.9353 35.8668 52.0435 35.9827 51.1468 36.0266C53.5542 31.9553 55.4019 27.5781 56.6401 23.0133C57.6267 19.1466 58.4001 13.9733 56.3467 11.3333C54.8386 9.42017 52.9075 7.88274 50.7051 6.84169C48.5027 5.80064 46.089 5.28431 43.6534 5.33326C41.4327 5.31902 39.2221 5.63354 37.0934 6.26659C35.8162 6.0421 34.5234 5.91728 33.2268 5.89326C30.9314 5.84609 28.6656 6.41714 26.6668 7.54659C25.1248 7.03845 23.5471 6.64625 21.9468 6.37326C20.0453 5.88845 18.0652 5.79446 16.1263 6.09698C14.1875 6.39949 12.3302 7.09223 10.6668 8.13326C7.36009 10.4533 5.84009 14.5066 6.10676 20.1866C6.61583 24.41 7.5084 28.5784 8.77342 32.6399C9.52582 35.1811 10.5169 37.6454 11.7334 39.9999C12.6003 42.1683 14.2726 43.9171 16.4001 44.8799C17.1712 45.131 17.9952 45.172 18.7874 44.9986C19.5796 44.8251 20.3112 44.4436 20.9068 43.8933C21.6205 44.6699 22.5485 45.2174 23.5734 45.4666C25.6462 46.0377 27.8498 45.9064 29.8401 45.0933V47.2533C29.8177 49.3795 30.096 51.4983 30.6668 53.5466C30.6743 53.662 30.6743 53.7778 30.6668 53.8933C31.0223 55.1319 31.6719 56.2663 32.5601 57.1999C33.6341 58.2048 35.0634 58.742 36.5334 58.6933C37.1619 58.6957 37.7884 58.6241 38.4001 58.4799C39.5591 58.3387 40.678 57.9662 41.6903 57.3845C42.7027 56.8027 43.5879 56.0236 44.2934 55.0933C46.0996 51.8406 46.9414 48.1405 46.7201 44.4266V43.7333H47.1734C49.3609 43.8848 51.5533 43.5194 53.5734 42.6666C54.7734 42.0533 58.6667 39.9999 57.7334 37.3333ZM52.9068 41.2533C51.3817 41.8674 49.7507 42.1754 48.1068 42.1599C47.395 42.1789 46.6846 42.089 46.0001 41.8933C45.7334 44.3999 45.1468 49.0666 44.8001 51.0133C44.6977 52.5838 44.0364 54.0658 42.9357 55.1909C41.8351 56.316 40.368 57.0097 38.8001 57.1466C38.2214 57.2691 37.6316 57.3316 37.0401 57.3333C35.8791 57.3062 34.7586 56.9009 33.8489 56.1789C32.9393 55.457 32.2901 54.4578 32.0001 53.3333C31.3126 49.7681 31.0619 46.1324 31.2534 42.5066C29.9552 43.6799 28.2561 44.31 26.5068 44.2666C25.6603 44.2524 24.8186 44.136 24.0001 43.9199C23.7601 43.9199 21.6801 43.3066 21.7068 41.9733C21.7334 40.6399 23.4668 40.3999 24.1068 40.2666C26.4001 39.7866 26.5601 39.5999 27.2801 38.6933C27.4371 38.4708 27.6063 38.2572 27.7868 38.0533C26.7522 38.0145 25.74 37.7409 24.8268 37.2533C24.2134 37.9199 22.5334 39.7333 20.7201 41.8933C20.3905 42.3834 19.9516 42.7903 19.4379 43.0818C18.9242 43.3734 18.3499 43.5416 17.7601 43.5733C17.4506 43.6177 17.1363 43.6177 16.8268 43.5733C14.4801 42.6666 12.2668 38.7999 10.2401 31.9999C8.98181 28.0638 8.08915 24.02 7.57342 19.9199C7.30675 14.7999 8.64009 11.1733 11.4934 9.25326C16.6134 5.62659 24.8268 8.42659 26.6934 9.09326C28.5927 7.83537 30.8449 7.2186 33.1201 7.33326C34.3798 7.33458 35.6343 7.49587 36.8534 7.81326C38.9993 7.08299 41.2535 6.72231 43.5201 6.74659C45.7217 6.68606 47.9074 7.13606 49.906 8.06134C51.9046 8.98663 53.6618 10.3621 55.0401 12.0799C56.8801 14.4266 55.6534 20.0799 55.0401 22.4533C53.6718 27.5709 51.5028 32.4399 48.6134 36.8799C49.0401 37.1733 50.3467 37.7066 53.9467 36.8799C55.1734 36.6133 55.8934 36.8799 56.1334 37.5466C56.7201 39.0133 54.2668 40.5599 52.9068 41.1999V41.2533Z" fill="#5C5B5B"/>
<path d="M46.48 36.2408C45.8005 35.4382 45.2433 34.5396 44.8267 33.5741C44.8267 33.3874 44.5067 32.9341 44.2134 32.4274C42.6667 29.7608 39.44 23.8408 41.5467 20.8541C42.2559 20.1 43.1552 19.5509 44.15 19.2646C45.1449 18.9784 46.1985 18.9655 47.2 19.2274C46.5145 17.336 45.4937 15.5835 44.1867 14.0541C42.854 12.4123 41.1767 11.0835 39.2735 10.1619C37.3703 9.24026 35.2878 8.74827 33.1734 8.72077C31.9256 8.64212 30.6752 8.82704 29.5037 9.26351C28.3321 9.69999 27.2655 10.3782 26.3734 11.2541C24.1029 13.9289 22.8057 17.2941 22.6934 20.8008L23.0934 20.5874C24.2021 19.9894 25.415 19.6092 26.6667 19.4674C27.1847 19.3475 27.7218 19.3356 28.2446 19.4326C28.7674 19.5296 29.2645 19.7334 29.705 20.0312C30.1455 20.329 30.5198 20.7144 30.8045 21.1635C31.0893 21.6125 31.2784 22.1154 31.36 22.6408C32.4564 26.2473 32.1809 30.1317 30.5867 33.5474C30.4133 33.884 30.2619 34.2314 30.1334 34.5874V34.8808C29.8667 35.6008 29.6267 36.2674 29.4667 36.8274C29.9804 36.7296 30.5119 36.7948 30.9867 37.0141C31.3878 37.205 31.7431 37.4801 32.0284 37.8206C32.3137 38.1611 32.5223 38.5591 32.64 38.9874V39.4141C32.653 39.4936 32.653 39.5746 32.64 39.6541C32.3528 44.018 32.5495 48.4002 33.2267 52.7208C33.3468 53.2851 33.5875 53.8169 33.9325 54.2794C34.2774 54.742 34.7183 55.1244 35.2249 55.4006C35.7316 55.6767 36.292 55.8399 36.8676 55.8791C37.4433 55.9183 38.0207 55.8324 38.56 55.6274C39.8298 55.5418 41.0222 54.9863 41.9047 54.0693C42.7871 53.1523 43.2965 51.9396 43.3334 50.6674C43.7334 48.3208 44.5334 41.7341 44.64 40.3208C44.64 37.4941 46.0267 36.9341 46.88 36.6941L46.48 36.2408Z" fill="#5C5B5B"/>
<path d="M48 38.2127L47.7867 38.0527H47.4667C46.7733 38.2394 46.1333 38.4261 46.2133 40.1861C47.0003 40.4983 47.8529 40.6083 48.6933 40.5061C49.9543 40.453 51.1977 40.1917 52.3733 39.7327C53.1445 39.3848 53.8555 38.9168 54.48 38.3461C52.3746 39.0843 50.0733 39.0369 48 38.2127Z" fill="#5C5B5B"/>
</svg>
