<svg width="64" height="64" viewBox="0 0 64 64" fill="none" xmlns="http://www.w3.org/2000/svg">
<g clip-path="url(#clip0_647_12)">
<path d="M32 0C14.328 0 0 14.3253 0 32C0 49.672 14.328 64 32 64C49.672 64 64 49.672 64 32C64 14.3253 49.672 0 32 0ZM32 59.8933C26.9733 59.8933 22.896 56.5333 22.896 52.3893H41.104C41.104 56.5307 37.0293 59.8933 32 59.8933ZM47.04 49.9067H16.96V44.4507H47.04V49.9067ZM46.9333 41.6453H17.0427C16.944 41.5307 16.8427 41.416 16.7467 41.2987C13.6667 37.5627 12.9413 35.6107 12.24 33.6213C12.2267 33.5547 15.9733 34.3867 18.6267 34.984C18.6267 34.984 19.9947 35.3013 21.992 35.664C20.072 33.416 18.9333 30.5573 18.9333 27.6373C18.9333 21.2213 23.8533 15.616 22.08 11.0853C23.808 11.2267 25.6533 14.7307 25.7787 20.2107C27.616 17.6747 28.384 13.0373 28.384 10.1973C28.384 7.256 30.3227 3.83733 32.2613 3.72C30.5333 6.57067 32.7093 9.01067 34.6453 15.0693C35.3707 17.3467 35.2773 21.176 35.8373 23.6053C36.024 18.56 36.8907 11.2 40.0907 8.65867C38.68 11.8587 40.3013 15.864 41.408 17.7893C43.1973 20.8933 44.2827 23.248 44.2827 27.6987C44.2724 30.6281 43.2236 33.459 41.3227 35.688C43.4347 35.2907 44.896 34.9333 44.896 34.9333L51.7573 33.5947C51.7573 33.5947 50.7627 37.696 46.9333 41.6453Z" fill="#5C5B5B"/>
</g>
<defs>
<clipPath id="clip0_647_12">
<rect width="64" height="64" fill="white"/>
</clipPath>
</defs>
</svg>
