<svg width="64" height="64" viewBox="0 0 64 64" fill="none" xmlns="http://www.w3.org/2000/svg">
<path d="M31.9999 26.9609C34.7466 26.9609 36.9866 29.2009 36.9866 32.0009C36.9866 34.6676 34.7466 36.9342 31.9999 36.9342C29.2533 36.9342 27.0133 34.6676 27.0133 32.0009C27.0133 29.2009 29.2533 26.9609 31.9999 26.9609ZM19.6533 53.3342C21.3333 54.3476 25.0133 52.8009 29.2533 48.8009C27.8666 47.2276 26.5066 45.5209 25.2266 43.7342C23.0777 43.5286 20.9413 43.2081 18.8266 42.7742C17.4666 48.4809 17.9733 52.4009 19.6533 53.3342ZM21.5466 38.0276L20.7733 36.6676C20.4799 37.4409 20.1866 38.2142 19.9999 38.9609C20.7199 39.1209 21.5199 39.2542 22.3466 39.3876L21.5466 38.0276ZM38.9866 36.0009L41.1466 32.0009L38.9866 28.0009C38.1866 26.5876 37.3333 25.3342 36.5599 24.0809C35.1199 24.0009 33.5999 24.0009 31.9999 24.0009C30.3999 24.0009 28.8799 24.0009 27.4399 24.0809C26.6666 25.3342 25.8133 26.5876 25.0133 28.0009L22.8532 32.0009L25.0133 36.0009C25.8133 37.4142 26.6666 38.6676 27.4399 39.9209C28.8799 40.0009 30.3999 40.0009 31.9999 40.0009C33.5999 40.0009 35.1199 40.0009 36.5599 39.9209C37.3333 38.6676 38.1866 37.4142 38.9866 36.0009ZM31.9999 18.0809C31.4933 18.6676 30.9599 19.2809 30.4266 20.0009H33.5733C33.0399 19.2809 32.5066 18.6676 31.9999 18.0809ZM31.9999 45.9209C32.5066 45.3342 33.0399 44.7209 33.5733 44.0009H30.4266C30.9599 44.7209 31.4933 45.3342 31.9999 45.9209ZM44.3199 10.6676C42.6666 9.65422 38.9866 11.2009 34.7466 15.2009C36.1332 16.7742 37.4932 18.4809 38.7732 20.2676C40.9599 20.4809 43.1199 20.8009 45.1733 21.2276C46.5333 15.5209 46.0266 11.6009 44.3199 10.6676ZM42.4532 25.9742L43.2266 27.3342C43.5199 26.5609 43.8132 25.7876 43.9999 25.0409C43.2799 24.8809 42.4799 24.7476 41.6532 24.6142L42.4532 25.9742ZM46.3199 7.17422C50.2399 9.41422 50.6666 15.3076 49.0132 22.1876C55.7866 24.1876 60.6666 27.4942 60.6666 32.0009C60.6666 36.5076 55.7866 39.8142 49.0132 41.8142C50.6666 48.6942 50.2399 54.5876 46.3199 56.8276C42.4266 59.0676 37.1199 56.5076 31.9999 51.6276C26.8799 56.5076 21.5733 59.0676 17.6533 56.8276C13.7599 54.5876 13.3333 48.6942 14.9866 41.8142C8.21325 39.8142 3.33325 36.5076 3.33325 32.0009C3.33325 27.4942 8.21325 24.1876 14.9866 22.1876C13.3333 15.3076 13.7599 9.41422 17.6533 7.17422C21.5733 4.93422 26.8799 7.49422 31.9999 12.3742C37.1199 7.49422 42.4266 4.93422 46.3199 7.17422ZM45.5466 32.0009C46.4532 34.0009 47.2532 36.0009 47.9199 38.0276C53.5199 36.3476 56.6666 33.9476 56.6666 32.0009C56.6666 30.0542 53.5199 27.6542 47.9199 25.9742C47.2532 28.0009 46.4532 30.0009 45.5466 32.0009ZM18.4533 32.0009C17.5466 30.0009 16.7466 28.0009 16.0799 25.9742C10.4799 27.6542 7.33325 30.0542 7.33325 32.0009C7.33325 33.9476 10.4799 36.3476 16.0799 38.0276C16.7466 36.0009 17.5466 34.0009 18.4533 32.0009ZM42.4532 38.0276L41.6532 39.3876C42.4799 39.2542 43.2799 39.1209 43.9999 38.9609C43.8132 38.2142 43.5199 37.4409 43.2266 36.6676L42.4532 38.0276ZM34.7466 48.8009C38.9866 52.8009 42.6666 54.3476 44.3199 53.3342C46.0266 52.4009 46.5333 48.4809 45.1733 42.7742C43.1199 43.2009 40.9599 43.5209 38.7732 43.7342C37.4932 45.5209 36.1332 47.2276 34.7466 48.8009ZM21.5466 25.9742L22.3466 24.6142C21.5199 24.7476 20.7199 24.8809 19.9999 25.0409C20.1866 25.7876 20.4799 26.5609 20.7733 27.3342L21.5466 25.9742ZM29.2533 15.2009C25.0133 11.2009 21.3333 9.65422 19.6533 10.6676C17.9733 11.6009 17.4666 15.5209 18.8266 21.2276C20.9413 20.7937 23.0777 20.4732 25.2266 20.2676C26.5066 18.4809 27.8666 16.7742 29.2533 15.2009Z" fill="#5C5B5B"/>
</svg>
