<svg width="64" height="64" viewBox="0 0 64 64" fill="none" xmlns="http://www.w3.org/2000/svg">
<g clip-path="url(#clip0_645_56)">
<path d="M63.98 38.2403C63.96 38.8543 63.146 39.5323 61.49 40.3963C58.074 42.1783 40.386 49.4583 36.614 51.4163C32.844 53.3843 30.76 53.3643 27.78 51.9363C24.8 50.5203 5.97805 42.9043 2.58205 41.2903C0.894047 40.4783 0.0300469 39.8003 -0.00195312 39.1543V45.6223C-0.00195312 46.2683 0.894047 46.9443 2.58205 47.7583C5.97805 49.3843 24.812 56.9883 27.78 58.4043C30.76 59.8323 32.842 59.8523 36.614 57.8843C40.384 55.9263 58.072 48.6443 61.49 46.8643C63.23 45.9683 64 45.2603 64 44.6243V38.2483C64 38.2383 63.99 38.2383 63.98 38.2383V38.2403ZM63.98 27.6983C63.948 28.3023 63.146 28.9803 61.49 29.8543C58.074 31.6243 40.386 38.9063 36.614 40.8643C32.844 42.8323 30.76 42.8123 27.78 41.3963C24.8 39.9683 5.97805 32.3643 2.58205 30.7403C0.894047 29.9383 0.0300469 29.2503 -0.00195312 28.6043V35.0723C-0.00195312 35.7183 0.894047 36.4063 2.58205 37.2083C5.97805 38.8343 24.8 46.4383 27.78 47.8643C30.76 49.2803 32.842 49.3023 36.614 47.3443C40.384 45.3763 58.072 38.1043 61.49 36.3243C63.23 35.4183 64 34.7103 64 34.0743V27.6983H63.98ZM63.98 16.7503C64.012 16.1043 63.168 15.5323 61.448 14.9063C58.126 13.6883 40.532 6.68829 37.166 5.44829C33.802 4.21829 32.426 4.27029 28.468 5.68829C24.51 7.11629 5.79005 14.4583 2.45805 15.7603C0.792047 16.4163 -0.0219531 17.0203 0.0100469 17.6663V24.1343C0.0100469 24.7803 0.896047 25.4563 2.59405 26.2703C5.98005 27.8963 24.812 35.5003 27.792 36.9263C30.76 38.3423 32.854 38.3643 36.626 36.3943C40.386 34.4363 58.084 27.1543 61.502 25.3843C63.232 24.4783 64.002 23.7703 64.002 23.1343V16.7483L63.98 16.7503ZM22.916 22.8763L37.75 20.6063L33.27 27.1683L22.916 22.8763ZM55.718 16.9583L46 20.8023L37.23 17.3343L46.938 13.5003L55.718 16.9583ZM29.968 10.6043L28.53 7.95829L33.01 9.70829L37.228 8.33229L36.082 11.0623L40.384 12.6763L34.842 13.2483L33.592 16.2383L31.592 12.9043L25.186 12.3323L29.968 10.6043ZM18.916 14.3443C23.302 14.3443 26.844 15.7203 26.844 17.4063C26.844 19.1043 23.292 20.4783 18.916 20.4783C14.54 20.4783 10.988 19.1023 10.988 17.4063C10.988 15.7183 14.54 14.3443 18.916 14.3443Z" fill="#5C5B5B"/>
</g>
<defs>
<clipPath id="clip0_645_56">
<rect width="64" height="64" fill="white"/>
</clipPath>
</defs>
</svg>
