<svg width="67" height="67" viewBox="0 0 67 67" fill="none" xmlns="http://www.w3.org/2000/svg">
<path d="M62.1844 39.7237L44.2645 10.3431C43.8897 9.73923 43.3665 9.24133 42.7449 8.89682C42.1232 8.55232 41.4237 8.37267 40.713 8.37499H26.2844C25.574 8.37262 24.8748 8.55226 24.2536 8.8968C23.6323 9.24133 23.1097 9.73926 22.7355 10.3431L22.7224 10.3614L4.82608 39.7027C4.42466 40.3444 4.20465 41.0828 4.18944 41.8395C4.17424 42.5962 4.3644 43.3429 4.73971 44.0002L11.8899 56.5156C12.2561 57.1563 12.7853 57.6889 13.4237 58.0594C14.0621 58.4298 14.7871 58.625 15.5251 58.625H51.4722C52.2103 58.625 52.9353 58.4298 53.5737 58.0594C54.2121 57.6889 54.7412 57.1563 55.1075 56.5156L62.2576 44.0002C62.6334 43.3474 62.825 42.6049 62.812 41.8518C62.7991 41.0987 62.5822 40.3632 62.1844 39.7237ZM57.3164 39.7812H45.1517L35.9418 24.4262L41.8959 14.5018L57.3164 39.7812ZM24.2168 43.9688H42.7832L49.0644 54.4375H17.9356L24.2168 43.9688ZM26.7293 39.7812L33.5 28.4959L40.2707 39.7812H26.7293ZM25.1014 14.5018L31.0582 24.4262L21.8457 39.7812H9.68358L25.1014 14.5018Z" fill="black"/>
</svg>
